<?xml version="1.0" standalone="no"?>
<!DOCTYPE svg PUBLIC "-//W3C//DTD SVG 20010904//EN"
 "http://www.w3.org/TR/2001/REC-SVG-20010904/DTD/svg10.dtd">
<svg version="1.0" xmlns="http://www.w3.org/2000/svg"
 width="1080.000000pt" height="1080.000000pt" viewBox="0 0 1080.000000 1080.000000"
 preserveAspectRatio="xMidYMid meet">
<metadata>
Created by potrace 1.14, written by Peter Selinger 2001-2017
</metadata>
<g transform="translate(0.000000,1080.000000) scale(0.100000,-0.100000)"
fill="#000000" stroke="none">
<path d="M0 5400 l0 -5400 5400 0 5400 0 0 5400 0 5400 -5400 0 -5400 0 0
-5400z m5190 2436 c99 -35 197 -94 274 -167 l63 -59 57 20 c259 89 574 7 778
-202 116 -119 189 -298 204 -501 l7 -92 63 -68 c71 -77 134 -195 161 -302 25
-103 23 -323 -5 -428 -64 -236 -224 -402 -467 -483 -44 -14 -106 -29 -138 -32
l-58 -5 3 93 3 93 63 13 c99 20 223 85 287 150 102 104 153 262 142 439 -11
173 -84 314 -211 407 l-40 28 -1 128 c-1 83 -8 148 -19 187 -45 162 -138 278
-283 352 -208 106 -393 93 -579 -42 -20 -15 -23 -13 -63 49 -76 119 -201 212
-336 252 -222 65 -552 -54 -701 -253 -67 -89 -97 -212 -81 -326 1 -13 -13 -24
-53 -40 -155 -64 -258 -184 -296 -344 -33 -139 2 -360 74 -473 82 -128 243
-217 425 -236 l63 -6 89 -95 89 -96 -155 6 c-270 9 -430 68 -575 212 -44 44
-95 105 -112 135 -106 189 -131 489 -57 686 48 127 153 257 267 329 43 27 44
30 56 100 38 241 226 440 522 552 115 44 174 53 325 49 120 -3 151 -7 215 -30z
m-217 -1078 l73 -53 -30 -59 c-52 -105 -45 -245 18 -345 33 -52 110 -119 164
-144 38 -18 66 -22 147 -22 120 0 167 18 248 94 l53 50 77 -55 c90 -64 90 -62
-2 -146 -112 -104 -261 -156 -415 -145 -362 25 -603 381 -496 729 19 63 65
148 80 148 5 0 43 -24 83 -52z m-2351 -2135 l3 -488 23 -48 c43 -87 125 -131
242 -131 117 0 199 44 242 131 l23 48 3 488 3 487 155 0 154 0 0 -427 c-1
-509 -7 -598 -51 -694 -57 -123 -177 -211 -335 -244 -90 -19 -298 -19 -388 0
-134 28 -253 104 -312 197 -13 20 -33 65 -46 100 -21 61 -22 77 -26 566 l-4
502 156 0 155 0 3 -487z m1658 -5 c146 -268 267 -487 270 -488 3 0 4 220 2
490 l-2 490 150 0 150 0 0 -680 0 -680 -203 0 -203 0 -239 438 c-132 240 -249
455 -261 476 l-22 39 5 -477 6 -476 -156 0 -157 0 0 680 0 680 197 -2 197 -3
266 -487z m1720 372 l0 -120 -337 -2 -338 -3 -3 -157 -3 -158 316 0 315 0 0
-120 0 -120 -315 0 -316 0 3 -157 3 -158 348 -3 347 -2 0 -120 0 -120 -505 0
-505 0 0 680 0 680 495 0 495 0 0 -120z m1340 0 l0 -120 -227 -2 -228 -3 -3
-557 -2 -558 -150 0 -150 0 -2 558 -3 557 -222 3 -223 2 0 120 0 120 605 0
605 0 0 -120z m1130 0 l0 -120 -337 -2 -338 -3 -3 -157 -3 -158 316 0 315 0 0
-120 0 -120 -315 0 -316 0 3 -157 3 -158 348 -3 347 -2 0 -120 0 -120 -505 0
-505 0 0 680 0 680 495 0 495 0 0 -120z m-2720 -1765 l0 -285 -30 0 c-25 0
-30 4 -30 25 0 28 -15 34 -24 10 -9 -23 -69 -45 -123 -45 -61 0 -110 26 -147
77 -55 78 -44 233 22 296 72 70 201 77 253 14 18 -22 18 -21 19 86 l0 107 30
0 30 0 0 -285z m175 215 c0 -29 -4 -36 -23 -38 -43 -6 -69 37 -40 66 7 7 24
12 38 10 21 -3 25 -8 25 -38z m1050 0 c0 -33 -2 -35 -35 -35 -29 0 -36 4 -38
23 -6 40 5 54 40 50 30 -3 33 -6 33 -38z m-3725 -165 l105 -195 3 195 2 195
55 0 55 0 0 -265 0 -266 -76 3 -76 3 -102 187 c-56 103 -104 189 -106 192 -3
2 -3 -83 -2 -190 l4 -194 -56 0 -56 0 0 265 0 265 73 0 72 0 105 -195z m1567
176 c52 -24 76 -67 76 -137 0 -63 -23 -105 -73 -133 -31 -17 -55 -21 -134 -21
l-96 0 0 -110 0 -110 -35 0 -35 0 0 265 0 265 128 0 c103 0 135 -4 169 -19z
m1434 2 c-22 -38 -50 -63 -70 -63 -26 0 -26 4 0 46 16 26 27 34 50 34 26 0 28
-2 20 -17z m259 -58 l0 -45 40 0 c38 0 40 -2 40 -30 0 -28 -2 -30 -40 -30
l-40 0 0 -137 c0 -76 4 -144 9 -151 5 -8 20 -15 35 -15 22 -2 26 -6 24 -27 -3
-23 -7 -25 -51 -24 -78 1 -81 8 -85 194 l-4 160 -24 0 c-20 0 -24 5 -24 30 0
25 4 30 25 30 23 0 25 4 25 45 0 45 0 45 35 45 35 0 35 0 35 -45z m-2663 -54
c59 -27 96 -86 101 -162 l4 -59 -147 0 -147 0 6 -32 c16 -82 106 -110 157 -49
22 27 32 31 72 31 54 0 58 -10 24 -61 -49 -74 -174 -102 -264 -58 -104 50
-135 219 -61 329 50 73 166 101 255 61z m468 0 c74 -33 115 -104 115 -196 0
-141 -92 -224 -234 -213 -80 7 -127 34 -163 95 -22 38 -26 58 -26 117 0 108
46 181 131 206 49 15 135 10 177 -9z m895 -3 c57 -30 90 -89 90 -165 l0 -53
-145 0 c-139 0 -145 -1 -145 -20 0 -73 65 -129 133 -116 36 7 77 45 77 72 0
10 13 14 40 14 l40 0 -15 -37 c-21 -50 -34 -63 -80 -84 -93 -43 -199 -12 -245
71 -47 85 -28 233 37 292 55 50 144 61 213 26z m1047 7 c63 -25 67 -40 73
-233 l5 -172 -31 0 c-24 0 -33 5 -37 22 l-6 21 -18 -22 c-36 -44 -160 -41
-207 6 -21 21 -26 35 -26 78 0 89 48 125 183 140 l67 7 0 34 c0 52 -40 88 -87
81 -42 -7 -71 -30 -75 -61 -2 -16 -11 -22 -41 -24 -37 -3 -38 -2 -31 25 21 93
129 139 231 98z m591 -16 c3 -24 -1 -27 -36 -32 -73 -12 -92 -62 -92 -239 l0
-118 -30 0 -30 0 0 205 0 205 30 0 c25 0 30 -4 30 -25 0 -32 2 -31 39 6 40 39
84 38 89 -2z m482 9 c42 -22 70 -56 85 -105 6 -21 3 -23 -29 -23 -31 0 -38 4
-50 34 -38 91 -158 81 -195 -17 -15 -40 -14 -131 3 -171 17 -40 60 -76 93 -76
38 0 80 27 95 60 10 24 19 30 45 30 39 0 43 -17 13 -66 -40 -64 -154 -93 -234
-60 -95 39 -134 203 -76 316 47 92 156 125 250 78z m395 8 c55 -23 62 -50 67
-238 l4 -168 -33 0 c-29 0 -33 3 -34 28 0 26 -1 26 -11 5 -13 -27 -56 -43
-115 -43 -81 0 -133 44 -133 113 0 88 55 129 188 142 l73 7 -6 42 c-9 52 -19
64 -60 72 -46 8 -91 -17 -100 -56 -6 -26 -11 -30 -41 -30 -28 0 -34 4 -34 21
0 87 134 147 235 105z m-1795 -201 l0 -205 -35 0 -35 0 0 205 0 205 35 0 35 0
0 -205z m1040 0 l0 -205 -30 0 -30 0 0 205 0 205 30 0 30 0 0 -205z"/>
<path d="M5510 3293 c-50 -26 -74 -73 -74 -147 1 -104 45 -161 124 -161 53 0
81 18 107 69 20 38 21 142 2 180 -30 63 -101 89 -159 59z"/>
<path d="M4590 3315 l0 -105 70 0 c117 0 160 29 160 107 0 75 -46 103 -167
103 l-63 0 0 -105z"/>
<path d="M3735 3282 c-28 -6 -52 -29 -64 -63 l-10 -29 90 0 c98 0 102 3 70 56
-19 31 -48 43 -86 36z"/>
<path d="M4194 3283 c-79 -15 -106 -190 -39 -253 30 -28 86 -31 116 -4 97 86
39 279 -77 257z"/>
<path d="M5080 3297 c-31 -16 -70 -73 -70 -103 0 -24 1 -24 110 -24 l110 0 0
28 c0 37 -34 90 -66 102 -33 13 -54 12 -84 -3z"/>
<path d="M6150 3129 c-43 -12 -70 -42 -70 -78 0 -32 8 -44 37 -60 70 -37 143
18 143 109 0 40 0 40 -37 39 -21 0 -54 -5 -73 -10z"/>
<path d="M7611 3127 c-49 -17 -78 -59 -65 -94 14 -41 53 -59 100 -48 48 13 74
49 77 105 l2 45 -40 2 c-22 1 -55 -3 -74 -10z"/>
</g>
</svg>
